<?xml version="1.0" standalone="no"?>
<!DOCTYPE svg PUBLIC "-//W3C//DTD SVG 20010904//EN"
 "http://www.w3.org/TR/2001/REC-SVG-20010904/DTD/svg10.dtd">
<svg version="1.0" xmlns="http://www.w3.org/2000/svg"
 width="16.000000pt" height="16.000000pt" viewBox="0 0 16.000000 16.000000"
 preserveAspectRatio="xMidYMid meet">
<metadata>
Created by potrace 1.11, written by Peter Selinger 2001-2013
</metadata>
<g transform="translate(0.000000,16.000000) scale(0.005161,-0.005161)"
fill="#000000" stroke="none">
<path d="M2893 3092 c-6 -4 -36 -7 -67 -6 -30 0 -53 -2 -51 -6 2 -3 -5 -6 -16
-6 -10 0 -19 4 -19 8 0 5 -8 5 -17 0 -22 -10 -33 -10 -52 2 -10 6 -12 5 -7 -2
7 -11 -66 -17 -151 -14 -13 1 -23 -3 -23 -9 0 -6 -6 -6 -18 0 -11 6 -24 6 -35
0 -9 -6 -17 -6 -17 -1 0 5 -10 8 -22 6 -13 -1 -23 -3 -23 -5 0 -1 -16 -3 -35
-4 -19 -1 -51 -4 -70 -6 -19 -2 -41 0 -48 5 -6 4 -12 3 -12 -3 0 -5 -19 -9
-42 -9 -24 0 -51 -3 -60 -7 -11 -4 -18 -3 -18 5 0 6 -5 8 -12 4 -10 -6 -66
-12 -178 -17 -19 -1 -40 -5 -47 -10 -6 -4 -14 -3 -18 3 -3 6 -14 7 -23 2 -9
-4 -59 -7 -109 -7 -51 0 -93 -2 -93 -5 0 -3 -19 -5 -43 -5 -23 1 -46 -1 -51
-4 -5 -2 -38 -4 -72 -4 -44 0 -62 -3 -57 -11 4 -8 3 -8 -6 0 -7 6 -31 8 -59 5
-26 -3 -65 -6 -87 -6 -22 0 -43 -4 -47 -10 -5 -6 -8 -5 -8 3 0 10 -5 10 -20 2
-15 -8 -20 -8 -20 2 0 8 -3 9 -8 3 -4 -6 -33 -11 -64 -10 -32 0 -58 -2 -58 -5
0 -3 -26 -5 -58 -4 -31 0 -62 -3 -69 -8 -6 -5 -14 -5 -18 2 -3 6 -13 7 -23 2
-9 -4 -47 -8 -84 -7 -38 0 -68 -2 -68 -5 0 -3 -20 -4 -45 -3 -25 0 -48 -3 -51
-8 -3 -5 -11 -6 -17 -2 -16 10 -37 13 -37 5 0 -4 -11 -7 -25 -7 -14 0 -25 4
-25 9 0 5 -6 4 -12 -2 -7 -5 -32 -9 -56 -8 -23 1 -42 -3 -42 -9 0 -5 -5 -3
-10 5 -6 10 -10 11 -10 3 0 -7 -5 -13 -11 -13 -5 0 -7 5 -3 11 5 8 1 8 -14 0
-14 -8 -23 -8 -27 -1 -4 7 -12 7 -18 2 -7 -4 -21 -8 -32 -7 -11 0 -30 -3 -42
-7 -16 -5 -23 -3 -23 5 0 8 -4 7 -10 -3 -9 -13 -10 -13 -10 0 0 10 -3 11 -8 4
-4 -6 -22 -10 -39 -8 -18 1 -33 -2 -33 -8 0 -7 -4 -7 -13 0 -7 6 -18 7 -26 3
-7 -5 -22 -6 -32 -4 -17 5 -19 -1 -19 -41 0 -35 3 -45 13 -40 9 6 9 4 1 -7
-11 -15 -11 -109 0 -127 3 -6 1 -14 -4 -17 -8 -5 -6 -13 5 -25 13 -14 13 -19
3 -24 -9 -4 -10 -8 -1 -12 8 -3 9 -15 3 -35 -5 -16 -5 -29 -1 -29 4 0 7 -22 7
-50 -1 -27 3 -50 8 -50 6 0 5 -5 -1 -11 -7 -7 -8 -20 -4 -33 4 -11 6 -38 5
-58 -1 -21 3 -38 7 -38 5 0 9 -5 9 -11 0 -5 -4 -8 -8 -5 -5 3 -9 -1 -9 -9 0
-8 4 -15 9 -15 5 0 4 -8 -1 -19 -6 -10 -8 -21 -4 -24 6 -7 13 -79 15 -169 1
-33 5 -55 11 -51 5 3 4 -4 -2 -16 -8 -14 -8 -21 -1 -21 8 0 8 -6 0 -20 -8 -15
-8 -20 2 -20 9 0 9 -3 -2 -10 -8 -5 -10 -10 -5 -10 6 0 11 -33 13 -73 3 -85 5
-97 16 -116 6 -9 5 -12 -1 -8 -12 8 -12 -57 -1 -69 4 -4 3 -13 -3 -21 -6 -7
-7 -13 -2 -13 5 0 9 -27 9 -60 -1 -34 3 -60 9 -60 5 0 3 -5 -5 -10 -13 -9 -13
-10 0 -10 13 0 13 -1 0 -10 -8 -5 -10 -10 -4 -10 7 0 10 -12 8 -30 -2 -16 1
-32 7 -36 8 -4 7 -9 -2 -15 -11 -6 -11 -11 -2 -20 8 -8 9 -19 3 -35 -5 -13 -6
-24 -2 -24 4 0 8 -19 9 -42 1 -116 7 -168 17 -168 7 0 8 -3 1 -8 -13 -8 -13
-22 -1 -41 6 -10 5 -12 -2 -7 -7 4 -12 2 -12 -3 0 -6 5 -11 11 -11 8 0 8 -5
-1 -15 -7 -8 -8 -15 -4 -15 5 0 10 -21 10 -47 4 -131 7 -163 18 -163 6 0 5 -4
-3 -9 -13 -8 -13 -12 0 -27 8 -10 9 -15 2 -11 -8 5 -11 0 -10 -13 1 -11 5 -20
9 -20 5 0 4 -9 -2 -20 -6 -11 -7 -20 -3 -20 5 0 8 -21 8 -47 0 -27 3 -63 6
-80 4 -19 3 -33 -2 -33 -6 0 -6 -7 -1 -17 4 -10 7 -28 6 -41 0 -12 4 -22 10
-22 7 0 7 -3 1 -8 -14 -10 -17 -32 -4 -32 8 0 8 -5 -1 -15 -7 -8 -8 -15 -3
-15 5 0 8 -42 8 -94 0 -52 3 -92 7 -90 3 2 5 -14 4 -35 -2 -22 1 -46 5 -53 4
-6 4 -20 -1 -29 -18 -33 11 -41 147 -38 70 1 136 6 147 11 13 7 16 7 12 -1
-10 -15 7 -14 22 1 10 10 15 10 22 -2 7 -11 10 -11 10 -2 0 9 5 10 19 2 14 -7
22 -7 26 1 4 6 13 8 21 5 8 -3 14 -2 14 3 0 9 31 8 47 -2 6 -4 14 -3 17 1 6
11 36 9 55 -3 10 -5 12 -4 7 3 -7 12 2 13 161 15 23 0 40 3 38 6 -2 3 8 6 21
6 13 0 24 -4 24 -8 0 -5 5 -5 12 -1 12 7 53 11 151 13 36 1 46 4 41 14 -6 9
-4 9 8 -1 17 -14 39 -13 50 3 5 6 8 5 8 -3 0 -10 5 -10 21 -1 16 8 20 8 14 -1
-6 -9 -2 -9 14 -1 16 9 21 9 21 -1 0 -8 3 -9 8 -3 7 10 87 16 234 19 43 0 78
4 78 7 0 4 19 6 43 5 23 -1 59 1 80 5 24 4 37 3 37 -5 0 -7 3 -7 8 -1 4 6 23
10 42 10 19 0 39 2 45 4 18 9 45 8 45 -2 0 -5 6 -5 13 2 10 8 17 7 27 -2 7 -6
10 -7 7 -1 -6 11 13 13 163 17 30 1 58 7 62 12 5 6 8 4 8 -5 0 -13 1 -13 10 0
7 11 10 11 10 2 0 -10 5 -10 20 -2 15 8 20 8 20 -2 0 -8 3 -9 8 -3 4 6 38 12
77 13 38 2 73 6 77 8 5 3 8 -1 8 -8 0 -10 2 -11 8 0 5 8 16 10 27 6 14 -6 16
-4 10 7 -7 11 -6 12 6 2 11 -9 19 -9 26 -2 8 8 13 7 18 -1 5 -8 11 -7 23 2 13
11 14 11 7 -1 -6 -10 -4 -12 6 -5 8 4 48 10 89 12 106 4 104 4 117 14 6 5 14
5 17 0 3 -4 27 -7 53 -4 26 2 81 5 120 5 40 1 73 5 73 9 0 4 9 5 20 3 18 -3
19 2 19 56 -1 32 -5 56 -10 53 -5 -3 -5 6 1 20 7 19 6 26 -3 26 -8 0 -8 3 2 9
11 7 11 9 0 14 -12 5 -12 6 0 6 11 1 11 4 1 16 -9 11 -9 15 -1 15 8 0 7 7 -3
22 -11 16 -13 25 -4 35 7 9 7 17 -2 28 -9 11 -9 15 -1 15 7 0 9 5 5 11 -6 10
-9 49 -17 214 -1 17 -6 36 -10 43 -5 6 -4 12 1 12 5 0 9 7 9 15 0 8 -4 15 -8
15 -4 0 -4 14 1 30 5 17 5 28 1 26 -7 -5 -8 12 -12 151 -1 44 -5 61 -13 56 -7
-4 -6 -1 1 8 10 12 10 18 1 27 -9 9 -9 12 1 12 10 0 11 3 2 13 -8 10 -7 17 1
25 7 7 8 12 2 12 -5 0 -9 29 -9 65 0 37 -4 65 -10 65 -5 0 -3 5 5 10 8 5 11
10 5 10 -5 0 -11 19 -12 43 -1 23 -2 47 -3 52 0 6 1 27 2 48 2 20 1 37 -2 37
-4 0 -6 21 -6 48 1 26 -3 50 -9 54 -6 5 -6 8 2 8 8 0 9 9 4 28 -4 15 -6 37 -5
50 1 12 -2 25 -6 27 -4 3 -4 21 0 40 5 21 4 38 -2 41 -6 4 -5 10 3 15 8 5 9 9
4 9 -6 0 -11 17 -10 38 0 20 -3 47 -7 59 -4 14 -3 23 5 27 8 3 8 5 -2 5 -11 1
-11 4 -1 16 7 9 8 15 2 15 -5 0 -9 18 -7 40 1 22 -2 40 -7 40 -7 0 -7 5 0 13
7 8 7 18 2 27 -5 9 -5 19 2 27 6 7 6 13 2 13 -5 0 -11 41 -12 92 -2 52 -8 99
-15 107 -8 10 -8 13 -1 8 7 -4 12 2 12 18 0 14 -4 23 -8 20 -9 -5 -6 27 4 43
4 6 3 12 -2 12 -8 0 -10 31 -13 168 0 34 -4 50 -11 46 -7 -5 -8 -2 -2 7 10 16
13 59 3 59 -8 0 -3 45 7 61 4 7 3 9 -4 5 -7 -4 -10 3 -8 21 2 16 0 38 -5 51
-5 12 -5 22 -1 22 10 0 8 42 -2 58 -4 7 -4 12 1 12 4 0 1 5 -7 10 -8 5 -10 10
-5 10 6 0 11 18 10 40 0 22 -3 40 -7 40 -4 0 -5 8 -3 18 4 24 -8 43 -22 34z"/>
</g>
</svg>
